<svg width="24" height="24" viewBox="0 0 23 22" fill="none" xmlns="http://www.w3.org/2000/svg">
<path d="M11.5 3.00004C13.0125 3.00004 14.25 4.20004 14.25 5.66671C14.25 7.13337 13.0125 8.33337 11.5 8.33337C9.9875 8.33337 8.75 7.13337 8.75 5.66671C8.75 4.20004 9.9875 3.00004 11.5 3.00004ZM11.5 15C15.2125 15 19.475 16.72 19.75 17.6667V19H3.25V17.68C3.525 16.72 7.7875 15 11.5 15ZM11.5 0.333374C8.46125 0.333374 6 2.72004 6 5.66671C6 8.61337 8.46125 11 11.5 11C14.5387 11 17 8.61337 17 5.66671C17 2.72004 14.5387 0.333374 11.5 0.333374ZM11.5 12.3334C7.82875 12.3334 0.5 14.12 0.5 17.6667V21.6667H22.5V17.6667C22.5 14.12 15.1713 12.3334 11.5 12.3334Z" fill="#323232"/>
</svg>
